<svg width="48" height="48" viewBox="0 0 48 48" fill="none" xmlns="http://www.w3.org/2000/svg">
<path d="M40.4288 1.40625H14.9279C14.7816 1.40625 14.6373 1.46344 14.5304 1.57031L7.17383 8.92688C7.06602 9.03469 7.0107 9.17813 7.0107 9.32438L7.00977 46.0313C7.00977 46.3416 7.26195 46.5938 7.57227 46.5938H40.4288C40.7391 46.5938 40.9913 46.3416 40.9913 46.0313V1.96875C40.9913 1.65844 40.7391 1.40625 40.4288 1.40625ZM14.3654 3.32719V8.76281H8.92977L14.3654 3.32719ZM39.8663 45.4688H8.13383V9.88688H14.927C15.2373 9.88688 15.4895 9.63469 15.4895 9.32438V2.53125H39.8654L39.8663 45.4688ZM15.001 15.5775C15.001 20.5397 19.0379 24.5766 24.0001 24.5766C28.9623 24.5766 32.9991 20.5397 32.9991 15.5775C32.9991 10.6153 28.9623 6.57844 24.0001 6.57844C19.0379 6.57844 15.001 10.6153 15.001 15.5775ZM24.0001 7.70344C28.3416 7.70344 31.8741 11.2359 31.8741 15.5775C31.8741 19.9191 28.3416 23.4516 24.0001 23.4516C19.6585 23.4516 16.126 19.9191 16.126 15.5775C16.126 11.2359 19.6585 7.70344 24.0001 7.70344ZM20.596 19.3322C20.2857 19.3322 20.0335 19.5844 20.0335 19.8947C20.0335 20.205 20.2857 20.4572 20.596 20.4572H21.872V21.3769C21.872 21.6872 22.1241 21.9394 22.4345 21.9394C22.7448 21.9394 22.997 21.6872 22.997 21.3769V20.4572H24.0723V21.3769C24.0723 21.6872 24.3245 21.9394 24.6348 21.9394C24.9451 21.9394 25.1973 21.6872 25.1973 21.3769V20.4544C26.7338 20.4009 27.9666 19.1353 27.9666 17.5866C27.9666 16.59 27.4566 15.7116 26.6841 15.1969C27.2223 14.7225 27.5635 14.0306 27.5635 13.2694C27.5635 11.9203 26.5191 10.8112 25.1973 10.7063V9.77719C25.1973 9.46688 24.9451 9.21469 24.6348 9.21469C24.3245 9.21469 24.0723 9.46688 24.0723 9.77719V10.6969H22.997V9.77719C22.997 9.46688 22.7448 9.21469 22.4345 9.21469C22.1241 9.21469 21.872 9.46688 21.872 9.77719V10.6969H20.596C20.2857 10.6969 20.0335 10.9491 20.0335 11.2594C20.0335 11.5697 20.2857 11.8219 20.596 11.8219H21.1041V19.3322H20.596ZM24.991 11.8219C25.7888 11.8219 26.4385 12.4706 26.4385 13.2694C26.4385 14.0466 25.8066 14.6963 25.0295 14.7159C25.0276 14.7159 25.0257 14.7159 25.0238 14.7159H22.2301V11.8219H24.991ZM22.2291 15.8419H25.096C26.0588 15.8419 26.8416 16.6247 26.8416 17.5875C26.8416 18.5503 26.0588 19.3331 25.096 19.3331H22.2291V15.8419ZM15.7351 27.8841C15.4248 27.8841 15.1726 27.6319 15.1726 27.3216C15.1726 27.0112 15.4248 26.7591 15.7351 26.7591H32.2641C32.5745 26.7591 32.8266 27.0112 32.8266 27.3216C32.8266 27.6319 32.5745 27.8841 32.2641 27.8841H15.7351ZM11.4066 31.2712H36.5935C36.9038 31.2712 37.156 31.5234 37.156 31.8337C37.156 32.1441 36.9038 32.3962 36.5935 32.3962H11.4066C11.0963 32.3962 10.8441 32.1441 10.8441 31.8337C10.8441 31.5234 11.0963 31.2712 11.4066 31.2712ZM37.156 36.3469C37.156 36.6572 36.9038 36.9094 36.5935 36.9094H11.4066C11.0963 36.9094 10.8441 36.6572 10.8441 36.3469C10.8441 36.0366 11.0963 35.7844 11.4066 35.7844H36.5935C36.9038 35.7844 37.156 36.0356 37.156 36.3469ZM37.156 40.8591C37.156 41.1694 36.9038 41.4216 36.5935 41.4216H11.4066C11.0963 41.4216 10.8441 41.1694 10.8441 40.8591C10.8441 40.5488 11.0963 40.2966 11.4066 40.2966H36.5935C36.9038 40.2966 37.156 40.5478 37.156 40.8591Z" fill="#435F9C"/>
<g clip-path="url(#clip0_14960_6809)">
<path d="M40.4288 1.40625H14.9279C14.7816 1.40625 14.6373 1.46344 14.5304 1.57031L7.17383 8.92688C7.06602 9.03469 7.0107 9.17813 7.0107 9.32438L7.00977 46.0313C7.00977 46.3416 7.26195 46.5938 7.57227 46.5938H40.4288C40.7391 46.5938 40.9913 46.3416 40.9913 46.0313V1.96875C40.9913 1.65844 40.7391 1.40625 40.4288 1.40625ZM14.3654 3.32719V8.76281H8.92977L14.3654 3.32719ZM39.8663 45.4688H8.13383V9.88688H14.927C15.2373 9.88688 15.4895 9.63469 15.4895 9.32438V2.53125H39.8654L39.8663 45.4688ZM15.001 15.5775C15.001 20.5397 19.0379 24.5766 24.0001 24.5766C28.9623 24.5766 32.9991 20.5397 32.9991 15.5775C32.9991 10.6153 28.9623 6.57844 24.0001 6.57844C19.0379 6.57844 15.001 10.6153 15.001 15.5775ZM24.0001 7.70344C28.3416 7.70344 31.8741 11.2359 31.8741 15.5775C31.8741 19.9191 28.3416 23.4516 24.0001 23.4516C19.6585 23.4516 16.126 19.9191 16.126 15.5775C16.126 11.2359 19.6585 7.70344 24.0001 7.70344ZM20.596 19.3322C20.2857 19.3322 20.0335 19.5844 20.0335 19.8947C20.0335 20.205 20.2857 20.4572 20.596 20.4572H21.872V21.3769C21.872 21.6872 22.1241 21.9394 22.4345 21.9394C22.7448 21.9394 22.997 21.6872 22.997 21.3769V20.4572H24.0723V21.3769C24.0723 21.6872 24.3245 21.9394 24.6348 21.9394C24.9451 21.9394 25.1973 21.6872 25.1973 21.3769V20.4544C26.7338 20.4009 27.9666 19.1353 27.9666 17.5866C27.9666 16.59 27.4566 15.7116 26.6841 15.1969C27.2223 14.7225 27.5635 14.0306 27.5635 13.2694C27.5635 11.9203 26.5191 10.8112 25.1973 10.7063V9.77719C25.1973 9.46688 24.9451 9.21469 24.6348 9.21469C24.3245 9.21469 24.0723 9.46688 24.0723 9.77719V10.6969H22.997V9.77719C22.997 9.46688 22.7448 9.21469 22.4345 9.21469C22.1241 9.21469 21.872 9.46688 21.872 9.77719V10.6969H20.596C20.2857 10.6969 20.0335 10.9491 20.0335 11.2594C20.0335 11.5697 20.2857 11.8219 20.596 11.8219H21.1041V19.3322H20.596ZM24.991 11.8219C25.7888 11.8219 26.4385 12.4706 26.4385 13.2694C26.4385 14.0466 25.8066 14.6963 25.0295 14.7159C25.0276 14.7159 25.0257 14.7159 25.0238 14.7159H22.2301V11.8219H24.991ZM22.2291 15.8419H25.096C26.0588 15.8419 26.8416 16.6247 26.8416 17.5875C26.8416 18.5503 26.0588 19.3331 25.096 19.3331H22.2291V15.8419ZM15.7351 27.8841C15.4248 27.8841 15.1726 27.6319 15.1726 27.3216C15.1726 27.0112 15.4248 26.7591 15.7351 26.7591H32.2641C32.5745 26.7591 32.8266 27.0112 32.8266 27.3216C32.8266 27.6319 32.5745 27.8841 32.2641 27.8841H15.7351ZM11.4066 31.2712H36.5935C36.9038 31.2712 37.156 31.5234 37.156 31.8337C37.156 32.1441 36.9038 32.3962 36.5935 32.3962H11.4066C11.0963 32.3962 10.8441 32.1441 10.8441 31.8337C10.8441 31.5234 11.0963 31.2712 11.4066 31.2712ZM37.156 36.3469C37.156 36.6572 36.9038 36.9094 36.5935 36.9094H11.4066C11.0963 36.9094 10.8441 36.6572 10.8441 36.3469C10.8441 36.0366 11.0963 35.7844 11.4066 35.7844H36.5935C36.9038 35.7844 37.156 36.0356 37.156 36.3469ZM37.156 40.8591C37.156 41.1694 36.9038 41.4216 36.5935 41.4216H11.4066C11.0963 41.4216 10.8441 41.1694 10.8441 40.8591C10.8441 40.5488 11.0963 40.2966 11.4066 40.2966H36.5935C36.9038 40.2966 37.156 40.5478 37.156 40.8591Z" fill="#FF9A00"/>
</g>
<defs>
<clipPath id="clip0_14960_6809">
<rect x="13.7148" y="5.71436" width="20.5714" height="19.4286" rx="9.71429" fill="white"/>
</clipPath>
</defs>
</svg>
