<svg width="48" height="48" viewBox="0 0 48 48" fill="none" xmlns="http://www.w3.org/2000/svg">
<mask id="path-1-outside-1_14960_6772" maskUnits="userSpaceOnUse" x="5.67383" y="6.09326" width="40" height="39" fill="black">
<rect fill="white" x="5.67383" y="6.09326" width="40" height="39"/>
<path d="M44.2084 32.3811H42.7935V23.4508C42.7935 23.2762 42.6523 23.135 42.4777 23.135C42.3032 23.135 42.1619 23.2762 42.1619 23.4508V32.3811H40.0252L39.3549 30.429C39.8706 30.3226 40.2672 29.8905 40.2672 29.3496V12.3223H41.4416C41.832 12.3223 42.1619 12.6461 42.1619 13.0297V21.2279C42.1619 21.4025 42.3032 21.5437 42.4777 21.5437C42.6523 21.5437 42.7935 21.4025 42.7935 21.2279V13.0297C42.7935 12.2915 42.1872 11.6907 41.4416 11.6907H40.2672V8.22998C40.2672 7.60334 39.7571 7.09326 39.1305 7.09326H13.7156C13.089 7.09326 12.5789 7.60334 12.5789 8.22998V11.6907H11.4039C10.6656 11.6907 10.0649 12.2915 10.0649 13.0297V13.1839C9.94533 12.8102 9.85412 12.4638 9.78859 12.21C9.69827 11.8574 9.1825 11.9159 9.16688 12.2766C9.11507 13.5861 8.23863 15.5641 6.92983 15.8102C6.57226 15.8774 6.59641 16.3993 6.95759 16.435C8.16153 16.5528 9.17798 17.8178 9.27173 19.3147C9.29287 19.6557 9.76666 19.7215 9.88357 19.4035C9.92886 19.2797 10.0291 19.0057 10.0649 18.9082V20.6216C10.0649 20.7962 10.2061 20.9251 10.3807 20.9251C10.5552 20.9251 10.6965 20.7709 10.6965 20.5963V17.4539C11.0168 16.8704 11.4099 16.3973 11.9146 16.2777C12.2427 16.2006 12.2353 15.7281 11.9047 15.6609C11.3991 15.5579 11.006 15.1511 10.6965 14.6404V13.0297C10.6965 12.6331 11.0073 12.3223 11.4039 12.3223H12.5789V29.3496C12.5789 29.9695 13.089 30.474 13.7156 30.474H35.6956C35.7529 30.5499 35.8142 30.6091 35.8835 30.6578C35.929 30.7904 36.5209 32.5137 36.4753 32.3811H10.6965V22.1371C10.6965 21.9625 10.5552 21.8213 10.3807 21.8213C10.2061 21.8213 10.0649 21.9625 10.0649 22.1371V32.3811H8.62473C8.45018 32.3811 8.30894 32.5223 8.30894 32.6969C8.31145 33.1809 8.30082 33.3437 8.32344 33.4703C8.32174 33.4836 8.30894 33.4916 8.30894 33.5055V33.7078C8.30894 35.5674 9.8219 37.0803 11.6821 37.0803H38.0942C38.5541 38.4167 40.2272 43.279 40.1204 42.9687C40.3995 43.7766 41.2011 44.2719 41.9208 44.0369L42.5258 43.8346C43.2548 43.598 43.5859 42.7109 43.3073 41.9047C43.1696 41.5066 41.5181 36.7309 41.6227 37.0331C43.2769 36.8065 44.5242 35.427 44.5242 33.7078V33.5055C44.5242 33.4941 44.5128 33.4876 44.5116 33.4768C44.5341 33.2299 44.5195 33.251 44.5242 32.6969C44.5242 32.5223 44.383 32.3811 44.2084 32.3811ZM11.077 15.9884C10.4374 16.459 10.0131 17.3052 9.6751 18.1545C9.34759 17.2195 8.7043 16.4535 7.91914 16.0667C8.6969 15.5474 9.25199 14.5951 9.5499 13.6502C9.8552 14.5334 10.324 15.4956 11.077 15.9884ZM43.8926 33.0127V33.2532C43.8926 34.5649 42.808 35.6401 41.5051 35.6401H41.1492L40.2425 33.0127C40.8205 33.0127 44.0256 33.0127 43.8926 33.0127ZM36.0984 29.8603L36.0492 27.7349C36.4126 27.937 36.9186 27.853 37.1235 27.3692C37.2206 27.4995 38.5043 29.2225 38.4072 29.0921C38.4371 29.1338 38.4422 29.1751 38.4543 29.2167C38.4891 29.3359 38.4863 29.479 38.386 29.5174L36.3772 30.1872C36.238 30.229 36.0984 30.0067 36.0984 29.8603ZM13.7156 29.8424C13.4368 29.8424 13.2105 29.6216 13.2105 29.3496V11.1911H26.7586C26.9331 11.1911 27.0744 11.0499 27.0744 10.8753C27.0744 10.7008 26.9331 10.5595 26.7586 10.5595H13.2105V8.22998C13.2105 7.9512 13.4368 7.72484 13.7156 7.72484H39.1305C39.4093 7.72484 39.6356 7.9512 39.6356 8.22998V10.5595H28.6595C28.4849 10.5595 28.3437 10.7008 28.3437 10.8753C28.3437 11.0499 28.4849 11.1911 28.6595 11.1911H39.6356V29.3496C39.6356 29.6142 39.4204 29.8313 39.1515 29.8418L39.0651 29.629C39.0697 29.6158 39.0646 29.6007 39.0686 29.5874C39.1675 29.2587 39.0662 28.9266 38.9189 28.723C38.7977 28.5604 35.7259 24.4391 35.922 24.7022C35.7362 24.4541 35.3465 24.594 35.3533 24.8977L35.4662 29.8424H13.7156ZM8.94052 33.0127H10.3792L10.3807 33.0133L10.3822 33.0127H36.6929C36.7383 33.1453 37.6478 35.8043 37.5916 35.6401H11.3281C10.0056 35.6401 8.94052 34.5196 8.94052 33.2532V33.0127ZM40.023 40.7433C36.8563 31.542 37.1698 32.4925 36.5795 30.7855L38.5759 30.12C39.3178 32.2765 42.1843 40.6087 42.0004 40.0741C41.9757 40.0809 40.073 40.7217 40.023 40.7433Z"/>
</mask>
<path d="M44.2084 32.3811H42.7935V23.4508C42.7935 23.2762 42.6523 23.135 42.4777 23.135C42.3032 23.135 42.1619 23.2762 42.1619 23.4508V32.3811H40.0252L39.3549 30.429C39.8706 30.3226 40.2672 29.8905 40.2672 29.3496V12.3223H41.4416C41.832 12.3223 42.1619 12.6461 42.1619 13.0297V21.2279C42.1619 21.4025 42.3032 21.5437 42.4777 21.5437C42.6523 21.5437 42.7935 21.4025 42.7935 21.2279V13.0297C42.7935 12.2915 42.1872 11.6907 41.4416 11.6907H40.2672V8.22998C40.2672 7.60334 39.7571 7.09326 39.1305 7.09326H13.7156C13.089 7.09326 12.5789 7.60334 12.5789 8.22998V11.6907H11.4039C10.6656 11.6907 10.0649 12.2915 10.0649 13.0297V13.1839C9.94533 12.8102 9.85412 12.4638 9.78859 12.21C9.69827 11.8574 9.1825 11.9159 9.16688 12.2766C9.11507 13.5861 8.23863 15.5641 6.92983 15.8102C6.57226 15.8774 6.59641 16.3993 6.95759 16.435C8.16153 16.5528 9.17798 17.8178 9.27173 19.3147C9.29287 19.6557 9.76666 19.7215 9.88357 19.4035C9.92886 19.2797 10.0291 19.0057 10.0649 18.9082V20.6216C10.0649 20.7962 10.2061 20.9251 10.3807 20.9251C10.5552 20.9251 10.6965 20.7709 10.6965 20.5963V17.4539C11.0168 16.8704 11.4099 16.3973 11.9146 16.2777C12.2427 16.2006 12.2353 15.7281 11.9047 15.6609C11.3991 15.5579 11.006 15.1511 10.6965 14.6404V13.0297C10.6965 12.6331 11.0073 12.3223 11.4039 12.3223H12.5789V29.3496C12.5789 29.9695 13.089 30.474 13.7156 30.474H35.6956C35.7529 30.5499 35.8142 30.6091 35.8835 30.6578C35.929 30.7904 36.5209 32.5137 36.4753 32.3811H10.6965V22.1371C10.6965 21.9625 10.5552 21.8213 10.3807 21.8213C10.2061 21.8213 10.0649 21.9625 10.0649 22.1371V32.3811H8.62473C8.45018 32.3811 8.30894 32.5223 8.30894 32.6969C8.31145 33.1809 8.30082 33.3437 8.32344 33.4703C8.32174 33.4836 8.30894 33.4916 8.30894 33.5055V33.7078C8.30894 35.5674 9.8219 37.0803 11.6821 37.0803H38.0942C38.5541 38.4167 40.2272 43.279 40.1204 42.9687C40.3995 43.7766 41.2011 44.2719 41.9208 44.0369L42.5258 43.8346C43.2548 43.598 43.5859 42.7109 43.3073 41.9047C43.1696 41.5066 41.5181 36.7309 41.6227 37.0331C43.2769 36.8065 44.5242 35.427 44.5242 33.7078V33.5055C44.5242 33.4941 44.5128 33.4876 44.5116 33.4768C44.5341 33.2299 44.5195 33.251 44.5242 32.6969C44.5242 32.5223 44.383 32.3811 44.2084 32.3811ZM11.077 15.9884C10.4374 16.459 10.0131 17.3052 9.6751 18.1545C9.34759 17.2195 8.7043 16.4535 7.91914 16.0667C8.6969 15.5474 9.25199 14.5951 9.5499 13.6502C9.8552 14.5334 10.324 15.4956 11.077 15.9884ZM43.8926 33.0127V33.2532C43.8926 34.5649 42.808 35.6401 41.5051 35.6401H41.1492L40.2425 33.0127C40.8205 33.0127 44.0256 33.0127 43.8926 33.0127ZM36.0984 29.8603L36.0492 27.7349C36.4126 27.937 36.9186 27.853 37.1235 27.3692C37.2206 27.4995 38.5043 29.2225 38.4072 29.0921C38.4371 29.1338 38.4422 29.1751 38.4543 29.2167C38.4891 29.3359 38.4863 29.479 38.386 29.5174L36.3772 30.1872C36.238 30.229 36.0984 30.0067 36.0984 29.8603ZM13.7156 29.8424C13.4368 29.8424 13.2105 29.6216 13.2105 29.3496V11.1911H26.7586C26.9331 11.1911 27.0744 11.0499 27.0744 10.8753C27.0744 10.7008 26.9331 10.5595 26.7586 10.5595H13.2105V8.22998C13.2105 7.9512 13.4368 7.72484 13.7156 7.72484H39.1305C39.4093 7.72484 39.6356 7.9512 39.6356 8.22998V10.5595H28.6595C28.4849 10.5595 28.3437 10.7008 28.3437 10.8753C28.3437 11.0499 28.4849 11.1911 28.6595 11.1911H39.6356V29.3496C39.6356 29.6142 39.4204 29.8313 39.1515 29.8418L39.0651 29.629C39.0697 29.6158 39.0646 29.6007 39.0686 29.5874C39.1675 29.2587 39.0662 28.9266 38.9189 28.723C38.7977 28.5604 35.7259 24.4391 35.922 24.7022C35.7362 24.4541 35.3465 24.594 35.3533 24.8977L35.4662 29.8424H13.7156ZM8.94052 33.0127H10.3792L10.3807 33.0133L10.3822 33.0127H36.6929C36.7383 33.1453 37.6478 35.8043 37.5916 35.6401H11.3281C10.0056 35.6401 8.94052 34.5196 8.94052 33.2532V33.0127ZM40.023 40.7433C36.8563 31.542 37.1698 32.4925 36.5795 30.7855L38.5759 30.12C39.3178 32.2765 42.1843 40.6087 42.0004 40.0741C41.9757 40.0809 40.073 40.7217 40.023 40.7433Z" fill="#435F9C"/>
<path d="M44.2084 32.3811H42.7935V23.4508C42.7935 23.2762 42.6523 23.135 42.4777 23.135C42.3032 23.135 42.1619 23.2762 42.1619 23.4508V32.3811H40.0252L39.3549 30.429C39.8706 30.3226 40.2672 29.8905 40.2672 29.3496V12.3223H41.4416C41.832 12.3223 42.1619 12.6461 42.1619 13.0297V21.2279C42.1619 21.4025 42.3032 21.5437 42.4777 21.5437C42.6523 21.5437 42.7935 21.4025 42.7935 21.2279V13.0297C42.7935 12.2915 42.1872 11.6907 41.4416 11.6907H40.2672V8.22998C40.2672 7.60334 39.7571 7.09326 39.1305 7.09326H13.7156C13.089 7.09326 12.5789 7.60334 12.5789 8.22998V11.6907H11.4039C10.6656 11.6907 10.0649 12.2915 10.0649 13.0297V13.1839C9.94533 12.8102 9.85412 12.4638 9.78859 12.21C9.69827 11.8574 9.1825 11.9159 9.16688 12.2766C9.11507 13.5861 8.23863 15.5641 6.92983 15.8102C6.57226 15.8774 6.59641 16.3993 6.95759 16.435C8.16153 16.5528 9.17798 17.8178 9.27173 19.3147C9.29287 19.6557 9.76666 19.7215 9.88357 19.4035C9.92886 19.2797 10.0291 19.0057 10.0649 18.9082V20.6216C10.0649 20.7962 10.2061 20.9251 10.3807 20.9251C10.5552 20.9251 10.6965 20.7709 10.6965 20.5963V17.4539C11.0168 16.8704 11.4099 16.3973 11.9146 16.2777C12.2427 16.2006 12.2353 15.7281 11.9047 15.6609C11.3991 15.5579 11.006 15.1511 10.6965 14.6404V13.0297C10.6965 12.6331 11.0073 12.3223 11.4039 12.3223H12.5789V29.3496C12.5789 29.9695 13.089 30.474 13.7156 30.474H35.6956C35.7529 30.5499 35.8142 30.6091 35.8835 30.6578C35.929 30.7904 36.5209 32.5137 36.4753 32.3811H10.6965V22.1371C10.6965 21.9625 10.5552 21.8213 10.3807 21.8213C10.2061 21.8213 10.0649 21.9625 10.0649 22.1371V32.3811H8.62473C8.45018 32.3811 8.30894 32.5223 8.30894 32.6969C8.31145 33.1809 8.30082 33.3437 8.32344 33.4703C8.32174 33.4836 8.30894 33.4916 8.30894 33.5055V33.7078C8.30894 35.5674 9.8219 37.0803 11.6821 37.0803H38.0942C38.5541 38.4167 40.2272 43.279 40.1204 42.9687C40.3995 43.7766 41.2011 44.2719 41.9208 44.0369L42.5258 43.8346C43.2548 43.598 43.5859 42.7109 43.3073 41.9047C43.1696 41.5066 41.5181 36.7309 41.6227 37.0331C43.2769 36.8065 44.5242 35.427 44.5242 33.7078V33.5055C44.5242 33.4941 44.5128 33.4876 44.5116 33.4768C44.5341 33.2299 44.5195 33.251 44.5242 32.6969C44.5242 32.5223 44.383 32.3811 44.2084 32.3811ZM11.077 15.9884C10.4374 16.459 10.0131 17.3052 9.6751 18.1545C9.34759 17.2195 8.7043 16.4535 7.91914 16.0667C8.6969 15.5474 9.25199 14.5951 9.5499 13.6502C9.8552 14.5334 10.324 15.4956 11.077 15.9884ZM43.8926 33.0127V33.2532C43.8926 34.5649 42.808 35.6401 41.5051 35.6401H41.1492L40.2425 33.0127C40.8205 33.0127 44.0256 33.0127 43.8926 33.0127ZM36.0984 29.8603L36.0492 27.7349C36.4126 27.937 36.9186 27.853 37.1235 27.3692C37.2206 27.4995 38.5043 29.2225 38.4072 29.0921C38.4371 29.1338 38.4422 29.1751 38.4543 29.2167C38.4891 29.3359 38.4863 29.479 38.386 29.5174L36.3772 30.1872C36.238 30.229 36.0984 30.0067 36.0984 29.8603ZM13.7156 29.8424C13.4368 29.8424 13.2105 29.6216 13.2105 29.3496V11.1911H26.7586C26.9331 11.1911 27.0744 11.0499 27.0744 10.8753C27.0744 10.7008 26.9331 10.5595 26.7586 10.5595H13.2105V8.22998C13.2105 7.9512 13.4368 7.72484 13.7156 7.72484H39.1305C39.4093 7.72484 39.6356 7.9512 39.6356 8.22998V10.5595H28.6595C28.4849 10.5595 28.3437 10.7008 28.3437 10.8753C28.3437 11.0499 28.4849 11.1911 28.6595 11.1911H39.6356V29.3496C39.6356 29.6142 39.4204 29.8313 39.1515 29.8418L39.0651 29.629C39.0697 29.6158 39.0646 29.6007 39.0686 29.5874C39.1675 29.2587 39.0662 28.9266 38.9189 28.723C38.7977 28.5604 35.7259 24.4391 35.922 24.7022C35.7362 24.4541 35.3465 24.594 35.3533 24.8977L35.4662 29.8424H13.7156ZM8.94052 33.0127H10.3792L10.3807 33.0133L10.3822 33.0127H36.6929C36.7383 33.1453 37.6478 35.8043 37.5916 35.6401H11.3281C10.0056 35.6401 8.94052 34.5196 8.94052 33.2532V33.0127ZM40.023 40.7433C36.8563 31.542 37.1698 32.4925 36.5795 30.7855L38.5759 30.12C39.3178 32.2765 42.1843 40.6087 42.0004 40.0741C41.9757 40.0809 40.073 40.7217 40.023 40.7433Z" stroke="#435F9C" stroke-width="0.6" mask="url(#path-1-outside-1_14960_6772)"/>
<path d="M15.5241 8.39453C15.1225 8.39453 14.7969 8.71988 14.7969 9.12171C14.7969 9.52323 15.1225 9.84889 15.5241 9.84889C15.9257 9.84889 16.2513 9.52323 16.2513 9.12171C16.2513 8.71988 15.9257 8.39453 15.5241 8.39453Z" fill="#435F9C"/>
<path d="M18.4401 8.39453C18.0385 8.39453 17.7129 8.71988 17.7129 9.12171C17.7129 9.52323 18.0385 9.84889 18.4401 9.84889C18.8417 9.84889 19.1673 9.52323 19.1673 9.12171C19.1673 8.71988 18.8417 8.39453 18.4401 8.39453Z" fill="#435F9C"/>
<path d="M21.3562 8.39453C20.9545 8.39453 20.6289 8.71988 20.6289 9.12171C20.6289 9.52323 20.9545 9.84889 21.3562 9.84889C21.7578 9.84889 22.0833 9.52323 22.0833 9.12171C22.0833 8.71988 21.7578 8.39453 21.3562 8.39453Z" fill="#435F9C"/>
<path d="M20.8912 20.0154C22.7355 20.0154 24.2386 18.5117 24.2386 16.6676C24.2386 14.8111 22.7355 13.3203 20.8912 13.3203C19.0344 13.3203 17.5313 14.8111 17.5313 16.6676C17.5312 18.5117 19.0344 20.0154 20.8912 20.0154ZM20.9796 14.5076C21.4849 14.5076 21.8765 14.9245 21.8639 15.4426C21.8512 15.9601 21.4344 16.3771 20.9291 16.3647C20.4365 16.3647 20.0449 15.9478 20.0576 15.4297C20.0701 14.9122 20.487 14.4953 20.9796 14.5076ZM19.8049 17.1098C19.8428 17.0722 19.8933 17.0722 19.9312 17.0975C20.5754 17.4891 21.2196 17.5014 21.8639 17.1098C21.9017 17.0845 21.9649 17.0845 21.9902 17.1227C22.3312 17.4762 22.4449 17.8931 22.3944 18.3729C22.3944 18.4235 22.3439 18.4618 22.2933 18.4618C21.3459 18.4994 20.3986 18.4864 19.4638 18.4488C19.4133 18.4488 19.3754 18.3982 19.3628 18.3477C19.3502 17.8172 19.4891 17.4003 19.8049 17.1098Z" fill="#FF9B00"/>
<path d="M20.8917 21.2285C18.9716 21.2285 17.418 22.7692 17.418 24.6892C17.418 26.6093 18.9716 28.1506 20.8917 28.1506C22.799 28.1506 24.3527 26.6093 24.3527 24.6892C24.3527 22.7692 22.799 21.2285 20.8917 21.2285ZM20.9801 22.4534C21.4979 22.4534 21.9022 22.8957 21.8895 23.4261C21.877 23.9565 21.4474 24.3864 20.9422 24.3864C20.4243 24.3735 20.0074 23.9442 20.0327 23.4138C20.0454 22.8833 20.4622 22.4534 20.9801 22.4534ZM22.4453 26.4575C22.4453 26.5081 22.3948 26.5464 22.3443 26.5464C21.359 26.584 20.3864 26.5716 19.4264 26.5334C19.3632 26.5334 19.3127 26.4828 19.3127 26.4323C19.3001 25.8765 19.439 25.4473 19.7674 25.1438C19.8054 25.1062 19.8685 25.1062 19.9064 25.1315C20.5632 25.5484 21.2327 25.5608 21.8895 25.1568C21.9401 25.1315 21.9906 25.1315 22.0285 25.1691C22.3822 25.5231 22.5085 25.9654 22.4453 26.4575Z" fill="#FF9B00"/>
<path d="M33.0719 14.9072H27.5912C27.4166 14.9072 27.2754 15.0485 27.2754 15.223C27.2754 15.3976 27.4166 15.5388 27.5912 15.5388H33.0719C33.2464 15.5388 33.3876 15.3976 33.3876 15.223C33.3876 15.0485 33.2464 14.9072 33.0719 14.9072Z" fill="#FF9B00"/>
<path d="M33.0719 17.0537H27.5912C27.4166 17.0537 27.2754 17.195 27.2754 17.3695C27.2754 17.544 27.4166 17.6853 27.5912 17.6853H33.0719C33.2464 17.6853 33.3876 17.544 33.3876 17.3695C33.3876 17.195 33.2464 17.0537 33.0719 17.0537Z" fill="#FF9B00"/>
<path d="M32.8062 24.4121H27.3256C27.151 24.4121 27.0098 24.5534 27.0098 24.7279C27.0098 24.9024 27.151 25.0437 27.3256 25.0437H32.8062C32.9808 25.0437 33.122 24.9024 33.122 24.7279C33.122 24.5534 32.9808 24.4121 32.8062 24.4121Z" fill="#FF9B00"/>
<path d="M32.8062 26.5586H27.3256C27.151 26.5586 27.0098 26.6998 27.0098 26.8744C27.0098 27.0489 27.151 27.1902 27.3256 27.1902H32.8062C32.9808 27.1902 33.122 27.0489 33.122 26.8744C33.122 26.6998 32.9808 26.5586 32.8062 26.5586Z" fill="#FF9B00"/>
<path d="M9.56029 3.75593L9.56029 3.75597C9.78516 3.73738 9.99896 3.87616 10.0572 4.1031C10.1466 4.451 10.2927 5.01685 10.5266 5.51778C10.6435 5.76801 10.7793 5.99539 10.9357 6.16927C11.092 6.34287 11.2621 6.45598 11.4485 6.49387L11.4487 6.4939C11.9342 6.59307 11.9496 7.28681 11.4642 7.40349L11.4639 7.40356C11.1953 7.46749 10.9596 7.71138 10.7345 8.11415C10.5121 8.51205 10.3203 9.02728 10.1207 9.57618L10.1205 9.57667C9.94885 10.0436 9.24963 9.95207 9.21817 9.44543M9.56029 3.75593L9.21817 9.44543M9.56029 3.75593L9.55673 3.75631M9.56029 3.75593L9.55673 3.75631M9.21817 9.44543C9.21817 9.44545 9.21818 9.44547 9.21818 9.44549L9.36788 9.43609L9.21817 9.44537C9.15386 8.42137 8.4678 7.59981 7.71024 7.52597L7.71004 7.52595C7.17629 7.47321 7.14228 6.70356 7.66931 6.60447L9.21817 9.44543ZM9.55673 3.75631C9.3266 3.78087 9.1503 3.97007 9.14031 4.19993L9.14029 4.20048M9.55673 3.75631L9.14029 4.20048M9.14029 4.20048C9.12248 4.64762 8.96433 5.21734 8.69778 5.69469M9.14029 4.20048L8.69778 5.69469M8.69778 5.69469C8.42847 6.17697 8.06945 6.5292 7.66932 6.60447L8.69778 5.69469ZM7.69704 6.75188C8.62837 6.57672 9.25255 5.15135 9.29017 4.20645L7.69704 6.75188ZM7.69704 6.75188C7.34071 6.81887 7.36331 7.34096 7.72479 7.37668L7.69704 6.75188ZM9.7455 7.99869C9.52059 7.58987 9.21382 7.24229 8.85334 6.99431C9.19012 6.68866 9.45872 6.28647 9.65693 5.86102C9.84467 6.27391 10.0926 6.67931 10.4259 6.97631C10.1446 7.25722 9.92492 7.62285 9.7455 7.99869Z" fill="#435F9C" stroke="#435F9C" stroke-width="0.3"/>
<path d="M6.09263 8.29666L6.09273 8.29704C6.18218 8.64461 6.32847 9.21034 6.56238 9.71129C6.67923 9.96154 6.815 10.189 6.97138 10.363C7.1275 10.5366 7.29748 10.6498 7.48353 10.6878L6.09263 8.29666ZM6.09263 8.29666C5.9573 7.77647 5.19894 7.86392 5.1759 8.3939L5.17588 8.39445M6.09263 8.29666L5.17588 8.39445M5.17588 8.39445C5.15807 8.84159 4.99992 9.41131 4.73344 9.88859C4.4642 10.3708 4.10537 10.7228 3.70563 10.7978M5.17588 8.39445L3.74572 11.7193M3.74572 11.7193L3.74569 11.7193C3.21538 11.6671 3.17305 10.8975 3.70563 10.7978M3.74572 11.7193C4.50339 11.7937 5.18945 12.6154 5.25376 13.6393L3.74572 11.7193ZM3.70563 10.7978L3.73324 10.9452L3.70559 10.7978C3.7056 10.7978 3.70562 10.7978 3.70563 10.7978ZM7.49889 11.5975L7.49917 11.5975L5.25376 13.6394C5.28519 14.1456 5.9839 14.239 6.1561 13.7706L6.15628 13.7702C6.35711 13.218 6.54964 12.7025 6.77199 12.3054C6.99707 11.9034 7.23202 11.6611 7.49889 11.5975ZM5.78109 12.1927C5.55617 11.7838 5.2494 11.4363 4.88892 11.1883C5.2257 10.8825 5.49428 10.4801 5.69248 10.0548C5.88026 10.4677 6.12822 10.8729 6.46153 11.1702C6.18022 11.4511 5.96052 11.8168 5.78109 12.1927Z" fill="#435F9C" stroke="#435F9C" stroke-width="0.3"/>
</svg>
