<svg width="48" height="48" viewBox="0 0 48 48" fill="none" xmlns="http://www.w3.org/2000/svg">
<path d="M10 18.5H22C22.2775 18.5 22.5 18.2775 22.5 18C22.5 17.7225 22.2775 17.5 22 17.5H10C9.7225 17.5 9.5 17.7225 9.5 18C9.5 18.2775 9.7225 18.5 10 18.5Z" fill="#FF9A00"/>
<path d="M10 24.5H14C14.2775 24.5 14.5 24.2775 14.5 24C14.5 23.7225 14.2775 23.5 14 23.5H10C9.7225 23.5 9.5 23.7225 9.5 24C9.5 24.2775 9.7225 24.5 10 24.5Z" fill="#FF9A00"/>
<path d="M22 27.5H18C17.7225 27.5 17.5 27.7225 17.5 28C17.5 28.2775 17.7225 28.5 18 28.5H22C22.2775 28.5 22.5 28.2775 22.5 28C22.5 27.7225 22.2775 27.5 22 27.5Z" fill="#FF9A00"/>
<path d="M14 27.5H10C9.7225 27.5 9.5 27.7225 9.5 28C9.5 28.2775 9.7225 28.5 10 28.5H14C14.2775 28.5 14.5 28.2775 14.5 28C14.5 27.7225 14.2775 27.5 14 27.5Z" fill="#FF9A00"/>
<path d="M36.1332 14.6L36.9571 15.0757C36.9572 15.0757 36.9573 15.0758 36.9573 15.0758C37.3831 15.3192 37.6873 15.7162 37.8141 16.1917C37.9409 16.667 37.8775 17.1618 37.6316 17.5875L28.2528 33.8329C28.2526 33.8333 28.2524 33.8337 28.2521 33.8341C28.2354 33.8642 28.2131 33.8837 28.1996 33.8949C28.1829 33.9089 28.1808 33.91 28.1776 33.9136C28.1689 33.9236 28.1634 33.9308 28.1568 33.9395C28.1513 33.9467 28.145 33.9549 28.1355 33.9667C28.1183 33.9879 28.0956 34.0133 28.0642 34.0349L28.0626 34.036L28.0626 34.0359L24.3305 36.5007L36.1332 14.6ZM36.1332 14.6H40C40.528 14.6 40.9984 14.4153 41.4 14.1432V40C41.4 40.7723 40.7723 41.4 40 41.4H8C7.22773 41.4 6.6 40.7723 6.6 40V14.1432C7.00157 14.4153 7.47201 14.6 8 14.6H33.4377C33.3203 14.7113 33.2151 14.8399 33.1284 14.99L33.1284 14.99L23.7492 31.236C23.7394 31.2523 23.7353 31.2684 23.7337 31.2809C23.7332 31.2845 23.7329 31.288 23.7328 31.2911C23.7049 31.3489 23.676 31.4193 23.6702 31.5004L23.6702 31.5015L23.4358 35.4H10C9.66727 35.4 9.4 35.6673 9.4 36C9.4 36.3327 9.66727 36.6 10 36.6H24C24.1136 36.6 24.2305 36.5673 24.3301 36.5009L36.1332 14.6ZM36.3599 16.1166L36.3602 16.1167C36.6646 16.2916 36.7708 16.6853 36.5959 16.99C36.5959 16.9901 36.5958 16.9901 36.5958 16.9902L35.5135 18.861L33.0866 17.4609L34.1664 15.5903C34.3441 15.2847 34.7335 15.177 35.0426 15.3542C35.0427 15.3542 35.0427 15.3542 35.0428 15.3542L36.3599 16.1166ZM8 42.6H40C41.4352 42.6 42.6 41.4352 42.6 40V12V8C42.6 6.56477 41.4352 5.4 40 5.4H8C6.56477 5.4 5.4 6.56477 5.4 8V12V40C5.4 41.4352 6.56477 42.6 8 42.6ZM24.8101 32.5424L26.5923 33.5707L24.6718 34.8388L24.8101 32.5424ZM34.9134 19.9016L27.5134 32.7184L26.3 32.0184L25.0866 31.3184L32.4866 18.5016L34.9134 19.9016ZM6.6 8C6.6 7.22773 7.22773 6.6 8 6.6H40C40.7723 6.6 41.4 7.22773 41.4 8V12C41.4 12.7723 40.7723 13.4 40 13.4H8C7.22773 13.4 6.6 12.7723 6.6 12V8Z" fill="#435F9C" stroke="#435F9C" stroke-width="0.2"/>
<path d="M10 12.5C11.38 12.5 12.5 11.38 12.5 10C12.5 8.62 11.38 7.5 10 7.5C8.62 7.5 7.5 8.62 7.5 10C7.5 11.38 8.62 12.5 10 12.5ZM10 8.5C10.8275 8.5 11.5 9.1725 11.5 10C11.5 10.8275 10.8275 11.5 10 11.5C9.1725 11.5 8.5 10.8275 8.5 10C8.5 9.1725 9.1725 8.5 10 8.5Z" fill="#435F9C"/>
<path d="M16 12.5C17.38 12.5 18.5 11.38 18.5 10C18.5 8.62 17.38 7.5 16 7.5C14.62 7.5 13.5 8.62 13.5 10C13.5 11.38 14.62 12.5 16 12.5ZM16 8.5C16.8275 8.5 17.5 9.1725 17.5 10C17.5 10.8275 16.8275 11.5 16 11.5C15.1725 11.5 14.5 10.8275 14.5 10C14.5 9.1725 15.1725 8.5 16 8.5Z" fill="#435F9C"/>
<path d="M22 12.5C23.38 12.5 24.5 11.38 24.5 10C24.5 8.62 23.38 7.5 22 7.5C20.62 7.5 19.5 8.62 19.5 10C19.5 11.38 20.62 12.5 22 12.5ZM22 8.5C22.8275 8.5 23.5 9.1725 23.5 10C23.5 10.8275 22.8275 11.5 22 11.5C21.1725 11.5 20.5 10.8275 20.5 10C20.5 9.1725 21.1725 8.5 22 8.5Z" fill="#435F9C"/>
<path d="M10 32.5H20C20.2775 32.5 20.5 32.2775 20.5 32C20.5 31.7225 20.2775 31.5 20 31.5H10C9.7225 31.5 9.5 31.7225 9.5 32C9.5 32.2775 9.7225 32.5 10 32.5Z" fill="#FF9A00"/>
</svg>
