<svg width="48" height="48" viewBox="0 0 48 48" fill="none" xmlns="http://www.w3.org/2000/svg">
<g clip-path="url(#clip0_14960_6886)">
<path d="M14.5504 27.7501H24.6504V29.0501H14.5504V27.7501Z" fill="#FF9A00" stroke="white" stroke-width="0.3"/>
<path d="M14.5504 23.7501H23.0504V25.0501H14.5504V23.7501Z" fill="#FF9A00" stroke="white" stroke-width="0.3"/>
<path d="M46.5 28.5H46.4H36.8H36.7V28.4V19.384V19.3476L36.7234 19.3197L40.6018 14.6984L46.5 28.5ZM46.5 28.5V28.4M46.5 28.5V28.4M46.5 28.4V8.4C46.5 7.90298 46.097 7.5 45.6 7.5H36.8H36.7V7.6V9.84414V10.0054M46.5 28.4L36.7 10.0054M36.7 10.0054L36.8445 9.93371M36.7 10.0054L36.8445 9.93371M36.8445 9.93371C38.1584 9.28131 39.7492 9.63892 40.6574 10.7904C41.5656 11.9423 41.5425 13.5728 40.6019 14.6982L36.8445 9.93371ZM12.7 3.5H12.8H35.2H35.3V3.6V11.3344V11.3708L35.2766 11.3987L26.5966 21.7443L12.7 3.5ZM12.7 3.5V3.6M12.7 3.5V3.6M12.7 3.6V30.8V30.9H12.8H35.2H35.3V30.8V21.291V21.0162L35.1234 21.2268L31.3457 25.7309L12.7 3.6ZM26.4413 22.0836L26.4413 22.0837L25.7085 26.691C25.6703 26.9331 25.7621 27.1779 25.9506 27.3359L25.8863 27.4125L25.9505 27.3358C26.1388 27.4934 26.3959 27.5409 26.6283 27.4606L26.6283 27.4605L31.0377 25.9406L31.0382 25.9405C31.1581 25.8998 31.2646 25.8274 31.3456 25.7311L26.4413 22.0836ZM26.4413 22.0836C26.4611 21.9589 26.515 21.8416 26.5965 21.7444L26.4413 22.0836ZM36.7 6V6.1H36.8H45.6C46.8702 6.1 47.9 7.12984 47.9 8.4V32.4C47.9 33.6702 46.8702 34.7 45.6 34.7H28H27.9V34.8V39.6V39.7H28H35.2C35.5866 39.7 35.9 40.0134 35.9 40.4V44.4V44.5H36H37.5V45.9H10.5V44.5H12H12.1V44.4V40.4C12.1 40.0134 12.4134 39.7 12.8 39.7H20H20.1V39.6V34.8V34.7H20H2.4C1.12984 34.7 0.1 33.6702 0.1 32.4V8.4C0.1 7.12984 1.12984 6.1 2.4 6.1H11.2H11.3V6V2.8C11.3 2.41343 11.6134 2.1 12 2.1H36C36.3866 2.1 36.7 2.41343 36.7 2.8V6ZM30.6471 24.2278L30.7236 24.292L30.7879 24.2155L37.9879 15.6362L38.0522 15.5596L37.9756 15.4953L35.5244 13.4386L35.4478 13.3744L35.3836 13.451L28.1836 22.0302L28.1193 22.1069L28.1959 22.1711L30.6471 24.2278ZM27.7651 23.6371L27.6297 23.5235L27.602 23.698L27.3012 25.5933L27.2751 25.7579L27.4326 25.7035L29.2463 25.0777L29.4132 25.0201L29.278 24.9066L27.7651 23.6371ZM39.5293 13.7979L39.5293 13.7979C40.1332 13.0786 40.0394 12.0062 39.3202 11.4027C38.6013 10.7988 37.5288 10.8927 36.925 11.6119L36.4105 12.2244L36.3462 12.301L36.4228 12.3653L38.874 14.4223L38.9505 14.4865L39.0148 14.41L39.5293 13.7979ZM11.3 7.6V7.5H11.2H2.4C1.90297 7.5 1.5 7.90298 1.5 8.4V28.4V28.5H1.6H11.2H11.3V28.4V7.6ZM34.4 44.5H34.5V44.4V41.2V41.1H34.4H13.6H13.5V41.2V44.4V44.5H13.6H34.4ZM26.4 39.7H26.5V39.6V34.8V34.7H26.4H21.6H21.5V34.8V39.6V39.7H21.6H26.4ZM1.6 29.9H1.5V30V32.4C1.5 32.897 1.90297 33.3 2.4 33.3H45.6C46.097 33.3 46.5 32.897 46.5 32.4V30V29.9H46.4H36.8H36.7V30V31.6C36.7 31.9866 36.3866 32.3 36 32.3H12C11.6134 32.3 11.3 31.9866 11.3 31.6V30V29.9H11.2H1.6Z" fill="#435F9C" stroke="white" stroke-width="0.2"/>
<path d="M43.3492 30.9498H44.6492V32.2498H43.3492V30.9498Z" fill="#FF9A00" stroke="white" stroke-width="0.3"/>
<path d="M14.5504 5.3502H17.4504V6.6502H14.5504V5.3502Z" fill="#FF9A00" stroke="white" stroke-width="0.3"/>
<path d="M19.3492 5.3502H32.6492V6.6502H19.3492V5.3502Z" fill="#FF9A00" stroke="white" stroke-width="0.3"/>
<path d="M14.5504 9.3502H32.6504V10.6502H14.5504V9.3502Z" fill="#FF9A00" stroke="white" stroke-width="0.3"/>
<path d="M14.5504 13.3502H15.8504V14.6502H14.5504V13.3502Z" fill="#FF9A00" stroke="white" stroke-width="0.3"/>
<path d="M17.7496 13.3502H19.0496V14.6502H17.7496V13.3502Z" fill="#FF9A00" stroke="white" stroke-width="0.3"/>
<path d="M20.9508 13.3502H29.4508V14.6502H20.9508V13.3502Z" fill="#FF9A00" stroke="white" stroke-width="0.3"/>
<path d="M14.5504 17.3502H19.0504V18.6502H14.5504V17.3502Z" fill="#FF9A00" stroke="white" stroke-width="0.3"/>
<path d="M20.9508 17.3502H26.2508V18.6502H20.9508V17.3502Z" fill="#FF9A00" stroke="white" stroke-width="0.3"/>
</g>
<defs>
<clipPath id="clip0_14960_6886">
<rect width="48" height="48" fill="white"/>
</clipPath>
</defs>
</svg>
