<svg width="48" height="48" viewBox="0 0 48 48" fill="none" xmlns="http://www.w3.org/2000/svg">
<g clip-path="url(#clip0_14960_6814)">
<path d="M0.703117 23.766C1.09142 23.766 1.40623 23.4513 1.40623 23.0629V17.6572C1.40623 17.011 1.93188 16.4853 2.57809 16.4853H8.31365C8.70196 16.4853 9.01677 16.1706 9.01677 15.7822C9.01677 15.3938 8.70196 15.0791 8.31365 15.0791H2.57809C1.15649 15.0791 0 16.2357 0 17.6572V23.0629C0 23.4512 0.314809 23.766 0.703117 23.766Z" fill="#435F9C"/>
<path d="M34.0983 29.9682C33.71 29.9682 33.3952 30.2829 33.3952 30.6713V45.4217C33.3952 46.0679 32.8696 46.5936 32.2234 46.5936H2.57809C1.93188 46.5936 1.40623 46.0679 1.40623 45.4217V26.3906C1.40623 26.0022 1.09142 25.6875 0.703117 25.6875C0.314809 25.6875 0 26.0022 0 26.3906V45.4217C0 46.8433 1.15649 47.9998 2.57809 47.9998H32.2234C33.645 47.9998 34.8015 46.8433 34.8015 45.4217V30.6713C34.8015 30.2829 34.4867 29.9682 34.0983 29.9682Z" fill="#435F9C"/>
<path d="M47.2959 17.0352C47.6842 17.0352 47.9991 16.7205 47.9991 16.3321V12.5081C47.9991 11.6036 47.263 10.8675 46.3584 10.8675H40.8085C39.9039 10.8675 39.1679 11.6036 39.1679 12.5081V13.7122H36.9388C36.2473 13.7122 35.5717 13.5185 34.9852 13.1518L30.3361 10.2463L32.7472 6.67067C32.7472 6.67067 32.7472 6.67058 32.7473 6.67058C32.7473 6.67058 32.7473 6.67049 32.7474 6.67049L34.2422 4.45379C34.4872 4.09042 34.5761 3.65346 34.4924 3.22324C34.4086 2.79312 34.1625 2.42132 33.7992 2.17626L30.9886 0.281028C30.6252 0.0359685 30.1884 -0.0531867 29.7581 0.0308124C29.3279 0.11453 28.9561 0.360715 28.7112 0.723992L22.6411 9.72567H18.2803C16.2695 9.72567 14.4051 10.8128 13.4146 12.5627L9.80856 18.9342C9.33316 19.774 9.33954 20.7733 9.82572 21.6071C10.3119 22.441 11.1783 22.9387 12.1436 22.9387H12.8039C12.81 23.3132 12.8847 23.6711 13.0148 24.0013L10.2252 28.1381C10.0189 28.444 9.87841 28.798 9.81869 29.1621L9.19432 32.9665C9.08923 33.6067 9.35819 34.2299 9.89603 34.5925C10.1759 34.7813 10.4937 34.876 10.8124 34.876C11.1061 34.876 11.4006 34.7954 11.6665 34.6335L14.9596 32.6285C15.2792 32.4339 15.5473 32.178 15.7564 31.8679L18.4102 27.9324V28.2134C18.4102 29.5595 19.5054 30.6546 20.8514 30.6546H21.6277C22.3074 30.6546 22.9227 30.3752 23.3658 29.9255C23.8088 30.3752 24.4242 30.6546 25.1039 30.6546H25.8801C27.2262 30.6546 28.3213 29.5595 28.3213 28.2134V27.8608C28.9974 28.0596 29.696 28.1624 30.4094 28.1624H36.2023C36.9244 28.1624 37.641 28.0574 38.3323 27.8503L39.1681 27.6V29.5471C39.1681 30.4517 39.9041 31.1877 40.8087 31.1877H46.3586C47.2632 31.1877 47.9992 30.4517 47.9992 29.5471V20.0364C47.9992 19.648 47.6844 19.3332 47.2961 19.3332C46.9078 19.3332 46.593 19.648 46.593 20.0364V29.5468C46.593 29.6761 46.4878 29.7812 46.3586 29.7812H40.8087C40.6795 29.7812 40.5743 29.6761 40.5743 29.5468V12.5081C40.5743 12.3789 40.6795 12.2738 40.8087 12.2738H46.3586C46.4878 12.2738 46.593 12.3789 46.593 12.5081V16.3321C46.5928 16.7204 46.9076 17.0352 47.2959 17.0352ZM17.832 19.3723L27.9889 4.30998L31.1882 6.46733L22.486 19.3723H17.832ZM29.877 1.51008C29.9242 1.44014 29.9909 1.41811 30.0265 1.41108C30.0621 1.40405 30.1322 1.39955 30.2023 1.44689L33.0129 3.34212C33.0829 3.38937 33.1051 3.45621 33.112 3.49174C33.1189 3.52736 33.1235 3.59749 33.0763 3.66752L31.9746 5.30138L28.7753 3.14403L29.877 1.51008ZM11.0404 20.8987C10.8091 20.5019 10.8061 20.0264 11.0323 19.6268L14.6384 13.2553C15.3797 11.9455 16.7751 11.1319 18.2802 11.1319H21.6927L16.136 19.3724H15.5541C14.2402 19.3724 13.1391 20.2988 12.868 21.5324H12.1435C11.6841 21.5323 11.2718 21.2954 11.0404 20.8987ZM16.1529 28.7642L12.9536 26.6068L13.8902 25.2179C14.4204 25.6647 15.1042 25.9348 15.8502 25.9348H18.0608L16.1529 28.7642ZM14.5902 31.0816C14.4952 31.2226 14.3733 31.3389 14.228 31.4273L10.935 33.4322C10.8232 33.5003 10.7285 33.4576 10.682 33.4263C10.6355 33.395 10.5606 33.323 10.5818 33.194L11.2062 29.3896C11.2334 29.224 11.2973 29.0632 11.391 28.9241L12.1673 27.7727L15.3667 29.9301L14.5902 31.0816ZM21.6275 29.2483H20.8512C20.2806 29.2483 19.8163 28.7841 19.8163 28.2133V25.9348H22.6625V28.2133C22.6625 28.7841 22.1981 29.2483 21.6275 29.2483ZM25.8799 29.2483H25.1037C24.533 29.2483 24.0687 28.7841 24.0687 28.2133V26.0586L26.9149 27.3115V28.2132C26.9149 28.7841 26.4506 29.2483 25.8799 29.2483ZM37.9285 26.5031C37.3682 26.6709 36.7873 26.756 36.2021 26.756H30.4091C29.5692 26.756 28.7535 26.5844 27.9847 26.2461L24.6161 24.7633C24.2622 24.6076 23.8867 24.5286 23.5002 24.5286H15.8501C14.9455 24.5286 14.2095 23.7926 14.2095 22.888V22.123C14.2095 21.3818 14.8126 20.7787 15.5539 20.7787H25.8227C26.511 20.7787 27.1709 20.5239 27.6807 20.0617L29.5098 18.4027C29.7974 18.1418 29.8191 17.6971 29.5583 17.4094C29.2974 17.1219 28.8528 17.1001 28.5651 17.361L26.736 19.0199C26.4854 19.2473 26.161 19.3724 25.8227 19.3724H24.182L29.5493 11.413L34.2397 14.3444C35.05 14.8507 35.9833 15.1184 36.9387 15.1184H39.1677V26.1319L37.9285 26.5031Z" fill="#435F9C"/>
<path d="M4.59961 34.875H6.38836C6.77667 34.875 7.09148 34.5603 7.09148 34.1719C7.09148 33.7835 6.77667 33.4688 6.38836 33.4688H4.59961C4.2113 33.4688 3.89648 33.7835 3.89648 34.1719C3.89648 34.5603 4.2113 34.875 4.59961 34.875Z" fill="#FF9B00"/>
<path d="M29.9805 37.2134H4.5996C4.21129 37.2134 3.89648 37.5281 3.89648 37.9165C3.89648 38.3049 4.21129 38.6196 4.5996 38.6196H29.9805C30.3688 38.6196 30.6836 38.3049 30.6836 37.9165C30.6836 37.5281 30.3688 37.2134 29.9805 37.2134Z" fill="#FF9B00"/>
<path d="M29.9805 40.9575H4.5996C4.21129 40.9575 3.89648 41.2722 3.89648 41.6606C3.89648 42.049 4.21129 42.3638 4.5996 42.3638H29.9805C30.3688 42.3638 30.6836 42.049 30.6836 41.6606C30.6836 41.2722 30.3688 40.9575 29.9805 40.9575Z" fill="#FF9B00"/>
</g>
<defs>
<clipPath id="clip0_14960_6814">
<rect width="48" height="48" fill="white"/>
</clipPath>
</defs>
</svg>
