<svg width="48" height="48" viewBox="0 0 48 48" fill="none" xmlns="http://www.w3.org/2000/svg">
<g clip-path="url(#clip0_14960_6623)">
<mask id="mask0_14960_6623" style="mask-type:luminance" maskUnits="userSpaceOnUse" x="0" y="0" width="48" height="48">
<path d="M0 0H48V48H0V0Z" fill="white"/>
</mask>
<g mask="url(#mask0_14960_6623)">
<path d="M32.6523 18.55H33.3672H42.5688H43.0725L43.1982 19.0377C43.606 20.6195 43.85 22.2774 43.85 24C43.85 24.7567 43.7723 25.4859 43.6886 26.1828C43.656 26.6308 43.7966 27.0745 44.0818 27.4217L44.0819 27.4219C44.3694 27.7722 44.7819 27.9976 45.2325 28.0505L45.2325 28.0505C45.6826 28.1034 46.1361 27.9795 46.4972 27.705C46.8552 27.4328 47.0946 27.0335 47.1663 26.5898C47.2681 25.7197 47.35 24.8663 47.35 24C47.35 11.123 36.8747 0.65 24 0.65C11.1253 0.65 0.65 11.123 0.65 24C0.65 36.8746 11.1254 47.35 24 47.35H24.0027L24 48L24.0027 47.35H24.0028H24.0031L24.0043 47.35L24.0093 47.35L24.0289 47.3501L24.1037 47.3504L24.3725 47.3512C24.596 47.3519 24.8962 47.3525 25.2033 47.3527C25.5107 47.3528 25.8239 47.3525 26.0739 47.351C26.199 47.3503 26.3069 47.3493 26.3896 47.348C26.415 47.3476 26.4375 47.3472 26.457 47.3468C26.4693 47.3465 26.4805 47.3462 26.4904 47.3459C26.4985 47.3457 26.5051 47.3455 26.5103 47.3453C26.5236 47.3448 26.5282 47.3445 26.5269 47.3446L26.5276 47.3445C26.9901 47.3106 27.4203 47.0942 27.7237 46.743C28.0265 46.3923 28.1778 45.9362 28.1447 45.4745C28.1069 45.0125 27.8894 44.5839 27.5386 44.2805L32.6523 18.55ZM32.6523 18.55L32.7201 19.2617C32.8624 20.7532 32.95 22.3237 32.95 24C32.95 24.4641 32.7655 24.9093 32.4374 25.2374C32.1093 25.5655 31.6641 25.75 31.2 25.75C30.7359 25.75 30.2907 25.5655 29.9626 25.2374C29.6345 24.9093 29.45 24.4641 29.45 24C29.45 22.2649 29.3551 20.646 29.1944 19.1314L29.1327 18.55H28.548H19.4208H18.8352L18.7743 19.1324C18.4361 22.3681 18.4329 25.63 18.7646 28.8663L18.8244 29.45H19.4112H24C24.4641 29.45 24.9093 29.6345 25.2374 29.9626C25.5655 30.2907 25.75 30.7359 25.75 31.2C25.75 31.6641 25.5655 32.1093 25.2374 32.4374C24.9093 32.7655 24.4641 32.95 24 32.95H20.1984H19.3855L19.5643 33.743C20.709 38.8195 22.5018 42.0821 23.4572 43.5539L23.6456 43.8442L23.9917 43.8499L24.0024 43.2M32.6523 18.55L24.0024 43.2M45.1567 28.6961C45.774 28.7686 46.3956 28.5986 46.8905 28.2226C47.3854 27.8462 47.7151 27.2928 47.8104 26.6784L45.1567 28.6961ZM45.1567 28.6961C44.5392 28.6236 43.9738 28.3147 43.5794 27.8342L45.1567 28.6961ZM24.0024 43.2L23.9917 43.8499H23.9918L23.9921 43.8499L23.9932 43.8499L23.9973 43.85L24.0134 43.8503L24.0745 43.8512L24.2945 43.8544C24.4778 43.8569 24.7259 43.86 24.9846 43.8623C25.4752 43.8666 26.0632 43.8688 26.2705 43.8532C26.7328 43.8242 27.188 43.9776 27.5385 44.2804L24.0024 43.2ZM24.5186 4.53591L23.9698 3.67873L23.423 4.5372C22.4619 6.04603 20.7161 9.29452 19.5839 14.2554L19.4025 15.05H20.2176H27.7464H28.5623L28.38 14.2548C27.2427 9.29317 25.4845 6.04446 24.5186 4.53591ZM4.80268 28.9657L4.93038 29.45H5.4312H14.5968H15.3095L15.2441 28.7403C15.1064 27.2474 15.0188 25.6814 15.0188 24.0102C15.0203 22.4246 15.0962 20.84 15.2463 19.2615L15.3139 18.55H14.5992H5.4312H4.92829L4.80202 19.0368C4.39143 20.6198 4.15 22.278 4.15 24L4.15 24.0024C4.15618 25.6778 4.37549 27.3457 4.80268 28.9657ZM7.3968 32.95H6.26875L6.83444 33.926C9.28436 38.1527 13.2018 41.332 17.8423 42.8598L19.2477 43.3225L18.6378 41.9745C17.4081 39.2563 16.4988 36.4042 15.9284 33.4757L15.826 32.95H15.2904H7.3968ZM15.2952 15.05H15.8278L15.9325 14.5278C16.6443 10.9781 17.6695 8.14164 18.6455 6.02498L19.2707 4.66915L17.8523 5.13529C13.2071 6.66187 9.28561 9.84341 6.83438 14.0741L6.26898 15.05H7.3968H15.2952ZM32.0309 14.5246L32.1335 15.05H32.6688H40.6008H41.7283L41.1633 14.0743C38.702 9.82362 34.757 6.63221 30.0858 5.11307L28.6786 4.6554L29.2936 6.00135C30.5381 8.72486 31.457 11.5857 32.0309 14.5246Z" fill="#435F9C" stroke="white" stroke-width="1.3"/>
<path d="M36.5367 45.4691L30.4164 32.0044C29.9575 30.995 30.996 29.9567 32.0055 30.4154L45.4699 36.5358C46.3889 36.9534 46.4129 38.2502 45.51 38.7016L41.3295 40.7918C41.0971 40.9079 40.909 41.0963 40.7928 41.3284L38.7024 45.5092C38.251 46.4121 36.9545 46.3881 36.5367 45.4691Z" fill="#FF9A00"/>
</g>
</g>
<defs>
<clipPath id="clip0_14960_6623">
<rect width="48" height="48" fill="white"/>
</clipPath>
</defs>
</svg>
