<svg width="48" height="48" viewBox="0 0 48 48" fill="none" xmlns="http://www.w3.org/2000/svg">
<g clip-path="url(#clip0_14960_6824)">
<path d="M8.67578 28.3952C8.67578 30.0816 10.0477 31.4535 11.7341 31.4535C13.4205 31.4535 14.7924 30.0816 14.7924 28.3952C14.7924 26.7088 13.4205 25.3369 11.7341 25.3369C10.0477 25.3369 8.67578 26.7088 8.67578 28.3952ZM12.9174 28.3952C12.9174 29.0477 12.3866 29.5785 11.7341 29.5785C11.0816 29.5785 10.5508 29.0477 10.5508 28.3952C10.5508 27.7427 11.0816 27.2119 11.7341 27.2119C12.3866 27.2119 12.9174 27.7427 12.9174 28.3952Z" fill="#FF9A00"/>
<path d="M20.2165 31.4535C21.9029 31.4535 23.2749 30.0816 23.2749 28.3952C23.2749 26.7088 21.9029 25.3369 20.2165 25.3369C18.5301 25.3369 17.1582 26.7088 17.1582 28.3952C17.1582 30.0816 18.5301 31.4535 20.2165 31.4535ZM20.2165 27.2119C20.869 27.2119 21.3999 27.7427 21.3999 28.3952C21.3999 29.0477 20.869 29.5785 20.2165 29.5785C19.564 29.5785 19.0332 29.0477 19.0332 28.3952C19.0332 27.7427 19.564 27.2119 20.2165 27.2119Z" fill="#FF9A00"/>
<path d="M43.2257 0.931352L43.2257 0.931371L47.4561 3.37383C47.8327 3.59135 47.9618 4.0729 47.7443 4.44954L39.9638 17.9257L39.9295 17.9852L39.9521 18.0501C40.1724 18.6819 40.2854 19.3426 40.2854 20.0208V36.7695C40.2854 40.0739 37.5968 42.7626 34.2923 42.7626H10.9429H10.8808L10.8369 42.8065L6.69997 46.9435C6.54935 47.0941 6.34804 47.1742 6.14294 47.1742C6.04156 47.1742 5.93923 47.1546 5.84177 47.1142C5.54755 46.9923 5.35564 46.7052 5.35564 46.3867V42.8412V42.7125L5.22843 42.693C2.3563 42.2514 0.15 39.7629 0.15 36.7695V20.0208C0.15 16.7163 2.83871 14.0277 6.14313 14.0277H15.5624C15.9973 14.0277 16.3499 14.3803 16.3499 14.8152C16.3499 15.25 15.9973 15.6027 15.5624 15.6027H6.14313C3.70689 15.6027 1.72499 17.5845 1.72499 20.0208V36.7695C1.72499 39.2058 3.70689 41.1877 6.14323 41.1877C6.57807 41.1877 6.93072 41.5403 6.93072 41.9752V44.1234V44.4855L7.18679 44.2294L9.99784 41.4184C9.99785 41.4184 9.99786 41.4184 9.99787 41.4183C10.1456 41.2707 10.3459 41.1877 10.5547 41.1877H34.2922C36.7284 41.1877 38.7104 39.2059 38.7104 36.7695V20.6564V20.0966L38.4305 20.5814L36.5535 23.8323C36.501 23.9232 36.4316 24.0017 36.3499 24.0641L36.3498 24.0641L31.6108 27.6881L31.5368 27.7447L31.5547 27.8361C31.5901 28.0172 31.6092 28.204 31.6092 28.3951C31.6092 29.9986 30.3044 31.3034 28.7009 31.3034C27.0974 31.3034 25.7926 29.9986 25.7926 28.3951C25.7926 26.7916 27.0974 25.4868 28.7009 25.4868C29.1757 25.4868 29.6235 25.6018 30.0198 25.8044L30.2094 25.9013L30.2369 25.6901L30.8592 20.9031L30.8592 20.9031L30.8596 20.8998L30.8596 20.8998L30.8603 20.8945C30.8733 20.7945 30.9056 20.6953 30.9593 20.6024L30.9593 20.6023L33.716 15.8276L33.8459 15.6026H33.5861H23.9999C23.5651 15.6026 23.2124 15.2499 23.2124 14.8151C23.2124 14.3802 23.5651 14.0276 23.9999 14.0276H34.6687H34.7553L34.7986 13.9526L42.15 1.21959C42.2544 1.03873 42.4264 0.90681 42.6282 0.852694L42.6282 0.85268C42.8299 0.798521 43.0448 0.826845 43.2257 0.931352ZM31.8932 25.1676L31.8467 25.5251L32.1331 25.3061L34.2768 23.6668L34.4555 23.5302L34.2607 23.4178L33.3628 22.8993L32.4648 22.3809L32.2701 22.2684L32.2411 22.4915L31.8932 25.1676ZM35.4536 22.2878L35.5835 22.3628L35.6585 22.2329L43.9174 7.92813L43.9925 7.79823L43.8625 7.72323L41.2559 6.21826L41.126 6.14326L41.051 6.27316L32.7921 20.578L32.7171 20.708L32.847 20.783L34.1503 21.5354L35.4536 22.2878ZM44.65 6.3591L44.7799 6.4341L44.8549 6.3042L45.9115 4.47402L45.9865 4.34411L45.8566 4.26911L43.25 2.76415L43.1201 2.68915L43.0451 2.81906L41.9884 4.64933L41.9134 4.77924L42.0433 4.85423L44.65 6.3591ZM27.3678 28.3951C27.3678 29.1304 27.9657 29.7284 28.7011 29.7284C29.4363 29.7284 30.0344 29.1304 30.0344 28.3951C30.0344 27.6597 29.4364 27.0618 28.7011 27.0618C27.9657 27.0618 27.3678 27.6597 27.3678 28.3951Z" fill="#435F9C" stroke="white" stroke-width="0.3"/>
<path d="M19.7812 15.7524C20.299 15.7524 20.7188 15.3327 20.7188 14.8149C20.7188 14.2972 20.299 13.8774 19.7812 13.8774C19.2635 13.8774 18.8438 14.2972 18.8438 14.8149C18.8438 15.3327 19.2635 15.7524 19.7812 15.7524Z" fill="#435F9C"/>
</g>
<defs>
<clipPath id="clip0_14960_6824">
<rect width="48" height="48" fill="white"/>
</clipPath>
</defs>
</svg>
