<svg width="48" height="48" viewBox="0 0 48 48" fill="none" xmlns="http://www.w3.org/2000/svg">
<g clip-path="url(#clip0_14960_6788)">
<path d="M45.6004 28H42.4004V26.4C42.4004 25.0768 41.3236 24 40.0004 24H30.4004C29.0772 24 28.0004 25.0768 28.0004 26.4V28H24.8004C23.4772 28 22.4004 29.0768 22.4004 30.4V34.7504C22.4004 35.452 22.7044 36.0928 23.2004 36.5368V45.5992C23.2004 46.9224 24.2772 47.9992 25.6004 47.9992H44.8004C46.1236 47.9992 47.2004 46.9224 47.2004 45.5992V36.5368C47.6964 36.0928 48.0004 35.452 48.0004 34.7504V30.4C48.0004 29.0768 46.9236 28 45.6004 28ZM29.6004 26.4C29.6004 25.9584 29.9588 25.6 30.4004 25.6H40.0004C40.442 25.6 40.8004 25.9584 40.8004 26.4V28H29.6004V26.4ZM24.0004 30.4C24.0004 29.9584 24.3588 29.6 24.8004 29.6H45.6004C46.042 29.6 46.4004 29.9584 46.4004 30.4V34.7504C46.4004 35.1184 46.1508 35.4368 45.7948 35.5272L37.502 37.6H32.8988L24.6068 35.5272C24.25 35.4376 24.0004 35.1184 24.0004 34.7504V30.4ZM33.6004 39.2H36.8004V40C36.8004 40.4416 36.442 40.8 36.0004 40.8H34.4004C33.9588 40.8 33.6004 40.4416 33.6004 40V39.2ZM44.8004 46.4H25.6004C25.1588 46.4 24.8004 46.0416 24.8004 45.6V37.2248L32.0004 39.0248V40.0008C32.0004 41.324 33.0772 42.4008 34.4004 42.4008H36.0004C37.3236 42.4008 38.4004 41.324 38.4004 40.0008V39.0248L45.6004 37.2248V45.6C45.6004 46.0416 45.242 46.4 44.8004 46.4Z" fill="#435F9C"/>
<path d="M22.4 23.9997C23.7232 23.9997 24.8 22.9229 24.8 21.5997V12.5373C25.296 12.0933 25.6 11.4525 25.6 10.7509V6.40049C25.6 5.07729 24.5232 4.00049 23.2 4.00049H20V2.40049C20 1.07729 18.9232 0.000488281 17.6 0.000488281H8C6.6768 0.000488281 5.6 1.07729 5.6 2.40049V4.00049H2.4C1.0768 4.00049 0 5.07729 0 6.40049V10.7509C0 11.4525 0.304 12.0933 0.8 12.5373V21.5997C0.8 22.9229 1.8768 23.9997 3.2 23.9997H22.4ZM7.2 2.39969C7.2 1.95809 7.5584 1.59969 8 1.59969H17.6C18.0416 1.59969 18.4 1.95809 18.4 2.39969V3.99969H7.2V2.39969ZM1.6 6.39969C1.6 5.95809 1.9584 5.59969 2.4 5.59969H23.2C23.6416 5.59969 24 5.95809 24 6.39969V10.7501C24 11.1181 23.7504 11.4365 23.3944 11.5269L15.1016 13.5997H10.4984L2.2064 11.5269C1.8496 11.4373 1.6 11.1181 1.6 10.7501V6.39969ZM11.2 15.1997H14.4V15.9997C14.4 16.4413 14.0416 16.7997 13.6 16.7997H12C11.5584 16.7997 11.2 16.4413 11.2 15.9997V15.1997ZM2.4 21.5997V13.2245L9.6 15.0245V16.0005C9.6 17.3237 10.6768 18.4005 12 18.4005H13.6C14.9232 18.4005 16 17.3237 16 16.0005V15.0245L23.2 13.2245V21.5997C23.2 22.0413 22.8416 22.3997 22.4 22.3997H3.2C2.7584 22.3997 2.4 22.0413 2.4 21.5997Z" fill="#435F9C"/>
<path d="M36.1628 13.687C35.8916 14.2494 35.9644 14.9006 36.3532 15.387L39.5956 19.4214C39.8932 19.7886 40.3324 19.9998 40.8012 19.9998C41.27 19.9998 41.7092 19.7886 42.0092 19.4182L45.2492 15.387C45.2492 15.387 45.2508 15.387 45.2508 15.3854C45.638 14.9006 45.7108 14.2494 45.4396 13.687C45.1764 13.139 44.6404 12.799 44.042 12.799H43.9676C43.6252 8.703 40.6564 4.7998 35.2812 4.7998C33.9636 4.7998 32.558 5.0382 31.1036 5.5086C30.6508 5.655 30.3628 6.087 30.4044 6.5582C30.4452 7.0294 30.802 7.40461 31.2716 7.47021C34.0028 7.85661 37.0188 10.0718 37.5268 12.799C36.942 12.8126 36.4212 13.1494 36.1628 13.687ZM33.7452 6.51741C34.2716 6.43901 34.7852 6.3998 35.2812 6.3998C40.1732 6.3998 42.4012 10.1318 42.4012 13.599C42.4012 14.0414 42.7588 14.399 43.2012 14.399L44.002 14.3846L40.8404 18.4166L37.5604 14.399H38.4012C38.8436 14.399 39.2012 14.0414 39.2012 13.599C39.2012 10.4366 36.6628 7.74381 33.7452 6.51741Z" fill="#FF9B00"/>
<path d="M16.7306 40.5297C13.9994 40.1433 10.9834 37.9281 10.4754 35.2009C11.0602 35.1873 11.581 34.8505 11.8394 34.3129C12.1106 33.7505 12.0378 33.0993 11.649 32.6129L8.40661 28.5785C7.81141 27.8441 6.59301 27.8409 5.99301 28.5817L2.75301 32.6129C2.75301 32.6129 2.75141 32.6129 2.75141 32.6145C2.36421 33.0993 2.29141 33.7505 2.56261 34.3129C2.82581 34.8609 3.36181 35.2009 3.96021 35.2009H4.03461C4.37701 39.2969 7.34581 43.2001 12.721 43.2001C14.0386 43.2001 15.4442 42.9617 16.8986 42.4913C17.3514 42.3449 17.6394 41.9129 17.5978 41.4417C17.557 40.9705 17.2002 40.5953 16.7306 40.5297ZM12.721 41.6001C7.82901 41.6001 5.60101 37.8681 5.60101 34.4009C5.60101 33.9585 5.24341 33.6009 4.80101 33.6009L4.00021 33.6153L7.16181 29.5833L10.4418 33.6009H9.60101C9.15861 33.6009 8.80101 33.9585 8.80101 34.4009C8.80101 37.5633 11.3394 40.2561 14.257 41.4825C13.7306 41.5609 13.217 41.6001 12.721 41.6001Z" fill="#FF9B00"/>
</g>
<defs>
<clipPath id="clip0_14960_6788">
<rect width="48" height="48" fill="white"/>
</clipPath>
</defs>
</svg>
