<svg width="13" height="37" viewBox="0 0 13 37" fill="none" xmlns="http://www.w3.org/2000/svg">
<g clip-path="url(#clip0_14960_6795)">
<path d="M4.34742 16.842H5.8211V31.5788H4.34742V16.842ZM7.29478 16.842H8.76847V31.5788H7.29478V16.842ZM8.76847 15.3683H4.34742V13.8946H8.76847V15.3683ZM6.55794 35.9998L4.8781 33.0525H8.23778L6.55794 35.9998ZM6.37373 -1.5791H6.55794C9.16495 -1.5755 11.4597 0.140317 12.2008 2.63939C12.942 5.13883 11.9537 7.82787 9.77047 9.25262C9.14804 9.65882 8.77135 10.351 8.76847 11.0947V12.4209H4.34742V11.0947C4.34742 11.0429 4.34742 10.9987 4.34742 10.9472H7.29478V9.47353H3.61057C3.53394 9.39474 3.45011 9.32314 3.36016 9.25982C1.19749 7.85881 0.195483 5.21582 0.885913 2.7333C1.57598 0.251131 3.79838 -1.49563 6.37373 -1.5791Z" fill="#435F9C"/>
</g>
<defs>
<clipPath id="clip0_14960_6795">
<rect width="12" height="36" fill="white" transform="translate(0.558594 0.5)"/>
</clipPath>
</defs>
</svg>
