<svg width="34" height="46" viewBox="0 0 34 46" fill="none" xmlns="http://www.w3.org/2000/svg">
<path d="M33.4288 0.40625H7.92789C7.78164 0.40625 7.63727 0.463438 7.53039 0.570312L0.173828 7.92688C0.0660156 8.03469 0.0107033 8.17813 0.0107033 8.32438L0.00976562 45.0313C0.00976562 45.3416 0.261953 45.5938 0.572266 45.5938H33.4288C33.7391 45.5938 33.9913 45.3416 33.9913 45.0313V0.96875C33.9913 0.658437 33.7391 0.40625 33.4288 0.40625ZM7.36539 2.32719V7.76281H1.92977L7.36539 2.32719ZM32.8663 44.4688H1.13383V8.88688H7.92695C8.23727 8.88688 8.48945 8.63469 8.48945 8.32438V1.53125H32.8654L32.8663 44.4688ZM8.00102 14.5775C8.00102 19.5397 12.0379 23.5766 17.0001 23.5766C21.9623 23.5766 25.9991 19.5397 25.9991 14.5775C25.9991 9.61531 21.9623 5.57844 17.0001 5.57844C12.0379 5.57844 8.00102 9.61531 8.00102 14.5775ZM17.0001 6.70344C21.3416 6.70344 24.8741 10.2359 24.8741 14.5775C24.8741 18.9191 21.3416 22.4516 17.0001 22.4516C12.6585 22.4516 9.12602 18.9191 9.12602 14.5775C9.12602 10.2359 12.6585 6.70344 17.0001 6.70344ZM13.596 18.3322C13.2857 18.3322 13.0335 18.5844 13.0335 18.8947C13.0335 19.205 13.2857 19.4572 13.596 19.4572H14.872V20.3769C14.872 20.6872 15.1241 20.9394 15.4345 20.9394C15.7448 20.9394 15.997 20.6872 15.997 20.3769V19.4572H17.0723V20.3769C17.0723 20.6872 17.3245 20.9394 17.6348 20.9394C17.9451 20.9394 18.1973 20.6872 18.1973 20.3769V19.4544C19.7338 19.4009 20.9666 18.1353 20.9666 16.5866C20.9666 15.59 20.4566 14.7116 19.6841 14.1969C20.2223 13.7225 20.5635 13.0306 20.5635 12.2694C20.5635 10.9203 19.5191 9.81125 18.1973 9.70625V8.77719C18.1973 8.46688 17.9451 8.21469 17.6348 8.21469C17.3245 8.21469 17.0723 8.46688 17.0723 8.77719V9.69687H15.997V8.77719C15.997 8.46688 15.7448 8.21469 15.4345 8.21469C15.1241 8.21469 14.872 8.46688 14.872 8.77719V9.69687H13.596C13.2857 9.69687 13.0335 9.94906 13.0335 10.2594C13.0335 10.5697 13.2857 10.8219 13.596 10.8219H14.1041V18.3322H13.596ZM17.991 10.8219C18.7888 10.8219 19.4385 11.4706 19.4385 12.2694C19.4385 13.0466 18.8066 13.6963 18.0295 13.7159C18.0276 13.7159 18.0257 13.7159 18.0238 13.7159H15.2301V10.8219H17.991ZM15.2291 14.8419H18.096C19.0588 14.8419 19.8416 15.6247 19.8416 16.5875C19.8416 17.5503 19.0588 18.3331 18.096 18.3331H15.2291V14.8419ZM8.73508 26.8841C8.42477 26.8841 8.17258 26.6319 8.17258 26.3216C8.17258 26.0112 8.42477 25.7591 8.73508 25.7591H25.2641C25.5745 25.7591 25.8266 26.0112 25.8266 26.3216C25.8266 26.6319 25.5745 26.8841 25.2641 26.8841H8.73508ZM4.40664 30.2712H29.5935C29.9038 30.2712 30.156 30.5234 30.156 30.8337C30.156 31.1441 29.9038 31.3962 29.5935 31.3962H4.40664C4.09633 31.3962 3.84414 31.1441 3.84414 30.8337C3.84414 30.5234 4.09633 30.2712 4.40664 30.2712ZM30.156 35.3469C30.156 35.6572 29.9038 35.9094 29.5935 35.9094H4.40664C4.09633 35.9094 3.84414 35.6572 3.84414 35.3469C3.84414 35.0366 4.09633 34.7844 4.40664 34.7844H29.5935C29.9038 34.7844 30.156 35.0356 30.156 35.3469ZM30.156 39.8591C30.156 40.1694 29.9038 40.4216 29.5935 40.4216H4.40664C4.09633 40.4216 3.84414 40.1694 3.84414 39.8591C3.84414 39.5488 4.09633 39.2966 4.40664 39.2966H29.5935C29.9038 39.2966 30.156 39.5478 30.156 39.8591Z" fill="#435F9C"/>
</svg>
