<svg width="48" height="48" viewBox="0 0 48 48" fill="none" xmlns="http://www.w3.org/2000/svg">
<path d="M43.3396 40.6871L43.6932 41.0407L43.6926 41.0412L43.3396 40.6871ZM43.3396 40.6871L42.9855 41.0401L42.986 41.0407L43.3396 40.6871ZM45.9999 38.7522L46.0003 38.7526C47.9968 40.749 47.9969 44.0008 45.9989 45.9989C45.0002 46.9975 43.6885 47.4974 42.375 47.4974C41.0616 47.4974 39.75 46.9976 38.7515 45.9992C38.7514 45.9991 38.7512 45.999 38.7511 45.9989L28.4983 35.727L28.4982 35.7269C28.3307 35.5591 28.2097 35.3512 28.1466 35.1228L28.1465 35.1224L26.05 27.5548C26.05 27.5547 26.05 27.5547 26.05 27.5546C25.9162 27.071 26.056 26.5533 26.4149 26.2033C26.7738 25.8533 27.2948 25.7261 27.7746 25.8718L27.7746 25.8718L35.1552 28.1138L35.1553 28.1138C35.3722 28.1797 35.5692 28.2978 35.7286 28.4578L35.7288 28.458L45.9999 38.7522ZM30.6648 33.9131L30.6999 34.0398L30.7927 34.1329L37.6848 41.0378L38.0384 41.392L38.3923 41.0381L41.0443 38.386L41.3975 38.0329L41.0447 37.6793L34.1142 30.7334L34.0256 30.6446L33.9056 30.6081L30.2373 29.4938L29.3674 29.2295L29.6101 30.1056L30.6648 33.9131ZM43.6937 40.3341L43.3401 39.9795L42.986 40.3336L40.3343 42.9853L39.9811 43.3385L40.334 43.6921L40.6965 44.0553L40.6969 44.0557C41.6221 44.981 43.1281 44.9807 44.0542 44.0543C44.0542 44.0543 44.0542 44.0543 44.0542 44.0542C44.0543 44.0542 44.0543 44.0542 44.0543 44.0542C44.9806 43.1281 44.9808 41.6225 44.0548 40.6963C44.0548 40.6963 44.0548 40.6963 44.0547 40.6963C44.0546 40.6961 44.0544 40.6959 44.0542 40.6957L43.6937 40.3341ZM9.875 10.5938C9.875 9.83425 10.4905 9.21875 11.25 9.21875H36.75C37.5095 9.21875 38.125 9.83425 38.125 10.5938C38.125 11.3533 37.5095 11.9688 36.75 11.9688H11.25C10.4905 11.9688 9.875 11.3533 9.875 10.5938ZM36.75 16.7188C37.5095 16.7188 38.125 17.3342 38.125 18.0938C38.125 18.8533 37.5095 19.4688 36.75 19.4688H11.25C10.4905 19.4688 9.875 18.8533 9.875 18.0938C9.875 17.3342 10.4905 16.7188 11.25 16.7188H36.75ZM9.875 25.5938C9.875 24.8342 10.4905 24.2188 11.25 24.2188H19.875C20.6345 24.2188 21.25 24.8342 21.25 25.5938C21.25 26.3533 20.6345 26.9688 19.875 26.9688H11.25C10.4905 26.9688 9.875 26.3533 9.875 25.5938ZM7.5 0.5H40.5C44.3595 0.5 47.5 3.64052 47.5 7.5V30.5625C47.5 31.322 46.8845 31.9375 46.125 31.9375C45.3655 31.9375 44.75 31.322 44.75 30.5625V7.5C44.75 5.15623 42.8438 3.25 40.5 3.25H7.5C5.15623 3.25 3.25 5.15623 3.25 7.5V40.5C3.25 42.8438 5.15623 44.75 7.5 44.75H30.4688C31.2283 44.75 31.8438 45.3655 31.8438 46.125C31.8438 46.8845 31.2283 47.5 30.4688 47.5H7.5C3.64052 47.5 0.5 44.3595 0.5 40.5V7.5C0.5 3.64052 3.64052 0.5 7.5 0.5Z" fill="#435F9C" stroke="white"/>
</svg>
